<svg width="791" height="93" viewBox="0 0 791 93" fill="none" xmlns="http://www.w3.org/2000/svg">
<path d="M76.248 1.80469L77.0215 30.6152H75.5391C75.0664 29.3691 74.7012 28.4238 74.4434 27.7793C72.9395 23.6543 71.7148 20.582 70.7695 18.5625C69.0938 14.9531 66.666 11.6445 63.4863 8.63672C61.0801 6.35938 58.5879 4.70508 56.0098 3.67383C53.4316 2.64258 50.5312 2.12695 47.3086 2.12695C42.4531 2.12695 38.2422 3.17969 34.6758 5.28516C31.5391 7.13281 28.6172 9.79688 25.9102 13.2773C23.2031 16.7148 20.9902 20.6465 19.2715 25.0723C16.8223 31.3027 15.5977 38.3926 15.5977 46.3418C15.5977 53.0879 16.4355 59.168 18.1113 64.582C19.7871 69.9961 22.2363 74.5293 25.459 78.1816C31.3887 84.9707 39.252 88.3652 49.0488 88.3652C53.9473 88.3652 58.3516 87.5273 62.2617 85.8516C66.1719 84.1328 69.2012 81.7266 71.3496 78.6328C73.8418 75.0664 75.6465 70.2539 76.7637 64.1953L78.2461 64.4531C77.4297 71.2422 75.582 76.6348 72.7031 80.6309C69.9531 84.4551 66.1504 87.377 61.2949 89.3965C56.4824 91.416 50.8965 92.4258 44.5371 92.4258C38.6074 92.4258 32.9355 91.5449 27.5215 89.7832C18.8848 86.9473 12.1387 81.834 7.2832 74.4434C2.42773 67.0098 0 58.1582 0 47.8887C0 40.0254 1.41797 32.7852 4.25391 26.168C7.08984 19.5078 11.043 14.1582 16.1133 10.1191C20.0234 7.02539 24.6855 4.57617 30.0996 2.77148C35.5566 0.923828 41.0137 0 46.4707 0C51.6699 0 57.1699 0.988281 62.9707 2.96484L68.2559 4.70508C69.2871 5.0918 70.1895 5.28516 70.9629 5.28516C72.0371 5.28516 72.918 4.83398 73.6055 3.93164C73.9062 3.50195 74.2715 2.79297 74.7012 1.80469H76.248Z" fill="black"/>
<path d="M90.1338 63.0352C90.1338 56.0742 92.712 49.8652 97.8682 44.4082C104.142 37.791 111.64 34.4824 120.362 34.4824C129.085 34.4824 136.562 37.791 142.792 44.4082C147.948 49.9082 150.526 56.1387 150.526 63.0996C150.526 69.9746 148.077 76.0977 143.179 81.4688C137.163 88.0859 129.558 91.3945 120.362 91.3945C111.167 91.3945 103.54 88.0859 97.4815 81.4688C95.1182 78.8906 93.292 76.0117 92.003 72.832C90.7569 69.6523 90.1338 66.3867 90.1338 63.0352ZM101.864 62.3262C101.864 69.8027 103.54 76.1406 106.892 81.3398C110.673 87.1406 115.292 90.041 120.749 90.041C123.069 90.041 125.325 89.3965 127.517 88.1074C129.708 86.8184 131.599 85.0137 133.189 82.6934C134.864 80.2871 136.218 77.2793 137.249 73.6699C138.28 70.0176 138.796 66.4941 138.796 63.0996C138.796 59.5762 138.237 56.0312 137.12 52.4648C136.046 48.8555 134.585 45.7617 132.737 43.1836C129.214 38.3281 124.896 35.9004 119.782 35.9004C114.927 35.9004 110.737 38.457 107.214 43.5703C103.647 48.6836 101.864 54.9355 101.864 62.3262Z" fill="black"/>
<path d="M178.527 34.3535C179.129 36.8457 179.43 39.166 179.43 41.3145V42.3457C184.758 37.1035 191.096 34.4824 198.443 34.4824C203.943 34.4824 208.369 35.7715 211.721 38.3496C215.029 40.8848 216.684 44.4941 216.684 49.1777V76.5059C216.684 79.4277 216.856 81.5762 217.199 82.9512C217.543 84.2832 218.209 85.4004 219.197 86.3027C220.4 87.4629 222.613 88.3438 225.836 88.9453V90.2344H197.412V88.9453C199.99 88.6016 201.838 88.1289 202.955 87.5273C204.072 86.8828 204.975 85.8086 205.662 84.3047C206.135 83.3164 206.457 81.834 206.629 79.8574C206.844 77.8379 206.951 74.959 206.951 71.2207V57.5566C206.951 52.873 206.779 49.4355 206.436 47.2441C206.135 45.0527 205.533 43.291 204.631 41.959C203.643 40.4551 202.225 39.2949 200.377 38.4785C198.529 37.6191 196.488 37.1895 194.254 37.1895C191.848 37.1895 189.592 37.6621 187.486 38.6074C185.424 39.5527 183.791 40.8418 182.588 42.4746C181.299 44.1934 180.44 46.1484 180.01 48.3398C179.623 50.4883 179.43 54.0762 179.43 59.1035V71.7363L179.494 76.5059C179.494 79.4277 179.666 81.5762 180.01 82.9512C180.354 84.2832 181.02 85.4004 182.008 86.3027C183.211 87.4629 185.424 88.3438 188.647 88.9453V90.2344H160.223V88.9453C162.801 88.6016 164.649 88.1289 165.766 87.5273C166.883 86.8828 167.785 85.8086 168.473 84.3047C168.945 83.3164 169.268 81.834 169.44 79.8574C169.654 77.8379 169.762 74.9375 169.762 71.1562V55.2363C169.762 50.8105 169.654 47.7168 169.44 45.9551C169.225 44.1504 168.752 42.6895 168.022 41.5723C167.291 40.3691 166.41 39.5098 165.379 38.9941C164.348 38.4355 162.865 38.0918 160.932 37.9629V36.6738L178.527 34.3535Z" fill="black"/>
<path d="M237.337 90.2344V71.9941H238.368C239.571 76.4629 241.075 80.0293 242.88 82.6934C246.189 87.5488 250.056 89.9766 254.482 89.9766C257.189 89.9766 259.53 89.1602 261.507 87.5273C263.655 85.7227 264.73 83.166 264.73 79.8574C264.73 77.1504 263.956 74.7871 262.409 72.7676C261.55 71.6934 260.454 70.7051 259.122 69.8027C257.833 68.9004 255.642 67.6328 252.548 66C247.134 63.1211 243.525 60.7148 241.72 58.7812C239.142 56.0312 237.853 52.8516 237.853 49.2422C237.853 45.375 239.142 42.0449 241.72 39.252C244.685 36.0723 248.616 34.4824 253.515 34.4824C255.706 34.4824 257.747 34.8691 259.638 35.6426L261.829 36.6094C262.517 36.8672 263.118 36.9961 263.634 36.9961C264.45 36.9961 265.224 36.3516 265.954 35.0625H267.243L267.952 49.6934H266.599C266.126 47.6309 265.61 45.9766 265.052 44.7305C264.536 43.4844 263.784 42.2812 262.796 41.1211C261.464 39.4883 259.917 38.2207 258.155 37.3184C256.394 36.373 254.653 35.9004 252.935 35.9004C250.528 35.9004 248.466 36.7812 246.747 38.543C245.071 40.2617 244.234 42.3887 244.234 44.9238C244.234 47.0293 244.985 48.9414 246.489 50.6602C248.036 52.3359 250.4 53.8828 253.579 55.3008L260.411 58.3945C264.493 60.2422 267.544 62.541 269.564 65.291C271.583 68.041 272.593 71.2852 272.593 75.0234C272.593 79.5352 271.132 83.2734 268.21 86.2383C264.859 89.6758 260.562 91.3945 255.319 91.3945C252.484 91.3945 249.605 90.8359 246.683 89.7188C244.792 88.9883 243.653 88.5801 243.267 88.4941C242.88 88.3652 242.386 88.3008 241.784 88.3008C240.28 88.3008 239.142 88.9453 238.368 90.2344H237.337Z" fill="black"/>
<path d="M300.143 35.4492H316.578V37.8984H300.143V75.4102C300.143 79.9219 300.916 83.1445 302.463 85.0781C303.279 86.1523 304.354 86.9902 305.686 87.5918C307.018 88.1934 308.457 88.4941 310.004 88.4941C311.938 88.4941 313.549 88.1074 314.838 87.334C316.127 86.5176 317.545 85.0566 319.092 82.9512L320.059 83.7891C318.641 86.3672 316.643 88.2793 314.065 89.5254C311.529 90.7715 308.35 91.3945 304.526 91.3945C299.455 91.3945 295.76 90.4062 293.44 88.4297C292.194 87.3984 291.377 86.1738 290.99 84.7559C290.604 83.2949 290.41 80.6953 290.41 76.957V37.8984H283.514V36.8672C286.307 35.9648 288.885 34.2246 291.248 31.6465C292.666 30.0566 293.805 28.4883 294.664 26.9414C295.524 25.3516 296.34 23.3105 297.113 20.8184L297.758 18.6914H300.143V35.4492Z" fill="black"/>
<path d="M322.472 36.6738L340.97 34.3535V71.6074L341.034 76.5059C341.034 79.4277 341.206 81.5762 341.55 82.9512C341.894 84.2832 342.56 85.4004 343.548 86.3027C344.751 87.4629 346.964 88.3438 350.187 88.9453V90.2344H321.763V88.9453C324.341 88.6016 326.189 88.1289 327.306 87.5273C328.423 86.8828 329.325 85.8086 330.013 84.3047C330.486 83.3164 330.808 81.834 330.98 79.8574C331.195 77.8379 331.302 74.9375 331.302 71.1562V55.2363C331.302 50.8105 331.195 47.7168 330.98 45.9551C330.765 44.1504 330.292 42.6895 329.562 41.5723C328.831 40.3691 327.95 39.5098 326.919 38.9941C325.888 38.4355 324.405 38.0918 322.472 37.9629V36.6738ZM335.878 11.3438C334.202 11.3438 332.806 10.8066 331.689 9.73242C330.614 8.6582 330.077 7.30469 330.077 5.67188C330.077 4.08203 330.636 2.75 331.753 1.67578C332.87 0.558594 334.245 0 335.878 0C337.511 0 338.886 0.558594 340.003 1.67578C341.12 2.75 341.679 4.08203 341.679 5.67188C341.679 7.30469 341.12 8.6582 340.003 9.73242C338.929 10.8066 337.554 11.3438 335.878 11.3438Z" fill="black"/>
<path d="M438.387 1.80469L439.16 30.6152H437.678C437.205 29.3691 436.84 28.4238 436.582 27.7793C435.078 23.6543 433.854 20.582 432.908 18.5625C431.233 14.9531 428.805 11.6445 425.625 8.63672C423.219 6.35938 420.727 4.70508 418.149 3.67383C415.571 2.64258 412.67 2.12695 409.448 2.12695C404.592 2.12695 400.381 3.17969 396.815 5.28516C393.678 7.13281 390.756 9.79688 388.049 13.2773C385.342 16.7148 383.129 20.6465 381.41 25.0723C378.961 31.3027 377.737 38.3926 377.737 46.3418C377.737 53.0879 378.574 59.168 380.25 64.582C381.926 69.9961 384.375 74.5293 387.598 78.1816C393.528 84.9707 401.391 88.3652 411.188 88.3652C416.086 88.3652 420.49 87.5273 424.401 85.8516C428.311 84.1328 431.34 81.7266 433.489 78.6328C435.981 75.0664 437.785 70.2539 438.903 64.1953L440.385 64.4531C439.569 71.2422 437.721 76.6348 434.842 80.6309C432.092 84.4551 428.289 87.377 423.434 89.3965C418.621 91.416 413.035 92.4258 406.676 92.4258C400.746 92.4258 395.074 91.5449 389.66 89.7832C381.024 86.9473 374.278 81.834 369.422 74.4434C364.567 67.0098 362.139 58.1582 362.139 47.8887C362.139 40.0254 363.557 32.7852 366.393 26.168C369.229 19.5078 373.182 14.1582 378.252 10.1191C382.162 7.02539 386.824 4.57617 392.239 2.77148C397.696 0.923828 403.153 0 408.61 0C413.809 0 419.309 0.988281 425.11 2.96484L430.395 4.70508C431.426 5.0918 432.328 5.28516 433.102 5.28516C434.176 5.28516 435.057 4.83398 435.744 3.93164C436.045 3.50195 436.41 2.79297 436.84 1.80469H438.387Z" fill="black"/>
<path d="M496.488 91.3301C495.929 88.752 495.65 86.1094 495.65 83.4023C490.279 88.7305 483.919 91.3945 476.572 91.3945C471.2 91.3945 466.882 90.084 463.616 87.4629C460.437 84.8848 458.847 81.2324 458.847 76.5059V54.0762L458.783 49.1777C458.783 46.2559 458.611 44.1289 458.267 42.7969C457.923 41.4648 457.279 40.3262 456.333 39.3809C455.087 38.2207 452.853 37.3613 449.63 36.8027V35.4492H468.515V68.127C468.515 72.7246 468.665 76.1406 468.966 78.375C469.31 80.5664 469.911 82.3711 470.771 83.7891C471.716 85.25 473.07 86.4102 474.831 87.2695C476.593 88.0859 478.57 88.4941 480.761 88.4941C483.167 88.4941 485.423 88.0215 487.529 87.0762C489.634 86.1309 491.288 84.8418 492.491 83.209C493.738 81.5332 494.554 79.5996 494.941 77.4082C495.37 75.2168 495.585 71.6074 495.585 66.5801V53.9473L495.521 49.1777C495.521 46.2559 495.349 44.1289 495.005 42.7969C494.704 41.4648 494.06 40.3262 493.072 39.3809C491.868 38.2207 489.634 37.3613 486.368 36.8027V35.4492H505.253V70.4473C505.253 74.873 505.361 77.9883 505.575 79.793C505.833 81.5547 506.306 82.9941 506.993 84.1113C507.767 85.3145 508.669 86.1953 509.7 86.7539C510.732 87.2695 512.214 87.5918 514.148 87.7207V89.0098L496.488 91.3301Z" fill="black"/>
<path d="M539.957 44.4082C541.504 41.7012 543.244 39.6602 545.178 38.2852C548.744 35.75 552.805 34.4824 557.36 34.4824C560.153 34.4824 562.28 35.1055 563.741 36.3516C565.073 37.4688 565.739 38.8438 565.739 40.4766C565.739 41.6797 565.33 42.668 564.514 43.4414C563.741 44.2148 562.731 44.6016 561.485 44.6016C560.024 44.6016 558.756 44 557.682 42.7969L555.684 40.6055C554.094 38.9297 552.225 38.0918 550.076 38.0918C547.155 38.0918 544.877 39.9824 543.244 43.7637C541.612 47.5449 540.795 52.8086 540.795 59.5547V71.6074L540.86 76.5059C540.86 79.4277 541.032 81.5762 541.375 82.9512C541.719 84.2832 542.385 85.4004 543.373 86.3027C544.576 87.4629 546.789 88.3438 550.012 88.9453V90.2344H521.588V88.9453C524.166 88.6016 526.014 88.1289 527.131 87.5273C528.248 86.8828 529.151 85.8086 529.838 84.3047C530.311 83.3164 530.633 81.834 530.805 79.8574C531.02 77.8379 531.127 74.9375 531.127 71.1562V55.2363C531.127 50.8105 531.02 47.7168 530.805 45.9551C530.59 44.1504 530.117 42.6895 529.387 41.5723C528.657 40.3691 527.776 39.5098 526.744 38.9941C525.713 38.4355 524.231 38.0918 522.297 37.9629V36.6738L538.862 34.3535C539.592 38.2637 539.957 41.6152 539.957 44.4082Z" fill="black"/>
<path d="M572.148 36.6738L590.646 34.3535V71.6074L590.71 76.5059C590.71 79.4277 590.882 81.5762 591.226 82.9512C591.57 84.2832 592.236 85.4004 593.224 86.3027C594.427 87.4629 596.64 88.3438 599.863 88.9453V90.2344H571.439V88.9453C574.017 88.6016 575.865 88.1289 576.982 87.5273C578.099 86.8828 579.001 85.8086 579.689 84.3047C580.161 83.3164 580.484 81.834 580.656 79.8574C580.87 77.8379 580.978 74.9375 580.978 71.1562V55.2363C580.978 50.8105 580.87 47.7168 580.656 45.9551C580.441 44.1504 579.968 42.6895 579.238 41.5723C578.507 40.3691 577.626 39.5098 576.595 38.9941C575.564 38.4355 574.081 38.0918 572.148 37.9629V36.6738ZM585.554 11.3438C583.878 11.3438 582.482 10.8066 581.365 9.73242C580.29 8.6582 579.753 7.30469 579.753 5.67188C579.753 4.08203 580.312 2.75 581.429 1.67578C582.546 0.558594 583.921 0 585.554 0C587.187 0 588.562 0.558594 589.679 1.67578C590.796 2.75 591.355 4.08203 591.355 5.67188C591.355 7.30469 590.796 8.6582 589.679 9.73242C588.605 10.8066 587.23 11.3438 585.554 11.3438Z" fill="black"/>
<path d="M609.559 63.0352C609.559 56.0742 612.137 49.8652 617.293 44.4082C623.567 37.791 631.065 34.4824 639.787 34.4824C648.51 34.4824 655.987 37.791 662.217 44.4082C667.373 49.9082 669.952 56.1387 669.952 63.0996C669.952 69.9746 667.502 76.0977 662.604 81.4688C656.588 88.0859 648.983 91.3945 639.787 91.3945C630.592 91.3945 622.965 88.0859 616.907 81.4688C614.543 78.8906 612.717 76.0117 611.428 72.832C610.182 69.6523 609.559 66.3867 609.559 63.0352ZM621.289 62.3262C621.289 69.8027 622.965 76.1406 626.317 81.3398C630.098 87.1406 634.717 90.041 640.174 90.041C642.495 90.041 644.75 89.3965 646.942 88.1074C649.133 86.8184 651.024 85.0137 652.614 82.6934C654.289 80.2871 655.643 77.2793 656.674 73.6699C657.705 70.0176 658.221 66.4941 658.221 63.0996C658.221 59.5762 657.662 56.0312 656.545 52.4648C655.471 48.8555 654.01 45.7617 652.162 43.1836C648.639 38.3281 644.321 35.9004 639.207 35.9004C634.352 35.9004 630.162 38.457 626.639 43.5703C623.073 48.6836 621.289 54.9355 621.289 62.3262Z" fill="black"/>
<path d="M726.054 91.3301C725.496 88.752 725.216 86.1094 725.216 83.4023C719.845 88.7305 713.486 91.3945 706.138 91.3945C700.767 91.3945 696.449 90.084 693.183 87.4629C690.003 84.8848 688.414 81.2324 688.414 76.5059V54.0762L688.349 49.1777C688.349 46.2559 688.177 44.1289 687.833 42.7969C687.49 41.4648 686.845 40.3262 685.9 39.3809C684.654 38.2207 682.419 37.3613 679.197 36.8027V35.4492H698.081V68.127C698.081 72.7246 698.232 76.1406 698.533 78.375C698.876 80.5664 699.478 82.3711 700.337 83.7891C701.283 85.25 702.636 86.4102 704.398 87.2695C706.16 88.0859 708.136 88.4941 710.328 88.4941C712.734 88.4941 714.99 88.0215 717.095 87.0762C719.201 86.1309 720.855 84.8418 722.058 83.209C723.304 81.5332 724.121 79.5996 724.507 77.4082C724.937 75.2168 725.152 71.6074 725.152 66.5801V53.9473L725.087 49.1777C725.087 46.2559 724.915 44.1289 724.572 42.7969C724.271 41.4648 723.626 40.3262 722.638 39.3809C721.435 38.2207 719.201 37.3613 715.935 36.8027V35.4492H734.82V70.4473C734.82 74.873 734.927 77.9883 735.142 79.793C735.4 81.5547 735.872 82.9941 736.56 84.1113C737.333 85.3145 738.236 86.1953 739.267 86.7539C740.298 87.2695 741.781 87.5918 743.714 87.7207V89.0098L726.054 91.3301Z" fill="black"/>
<path d="M755.602 90.2344V71.9941H756.633C757.836 76.4629 759.34 80.0293 761.145 82.6934C764.454 87.5488 768.321 89.9766 772.747 89.9766C775.454 89.9766 777.795 89.1602 779.772 87.5273C781.92 85.7227 782.995 83.166 782.995 79.8574C782.995 77.1504 782.221 74.7871 780.674 72.7676C779.815 71.6934 778.719 70.7051 777.387 69.8027C776.098 68.9004 773.907 67.6328 770.813 66C765.399 63.1211 761.79 60.7148 759.985 58.7812C757.407 56.0312 756.118 52.8516 756.118 49.2422C756.118 45.375 757.407 42.0449 759.985 39.252C762.95 36.0723 766.881 34.4824 771.78 34.4824C773.971 34.4824 776.012 34.8691 777.903 35.6426L780.094 36.6094C780.782 36.8672 781.383 36.9961 781.899 36.9961C782.715 36.9961 783.489 36.3516 784.219 35.0625H785.508L786.217 49.6934H784.864C784.391 47.6309 783.875 45.9766 783.317 44.7305C782.801 43.4844 782.049 42.2812 781.061 41.1211C779.729 39.4883 778.182 38.2207 776.42 37.3184C774.659 36.373 772.918 35.9004 771.2 35.9004C768.793 35.9004 766.731 36.7812 765.012 38.543C763.336 40.2617 762.499 42.3887 762.499 44.9238C762.499 47.0293 763.25 48.9414 764.754 50.6602C766.301 52.3359 768.665 53.8828 771.844 55.3008L778.676 58.3945C782.758 60.2422 785.809 62.541 787.829 65.291C789.848 68.041 790.858 71.2852 790.858 75.0234C790.858 79.5352 789.397 83.2734 786.475 86.2383C783.124 89.6758 778.827 91.3945 773.584 91.3945C770.749 91.3945 767.87 90.8359 764.948 89.7188C763.057 88.9883 761.918 88.5801 761.532 88.4941C761.145 88.3652 760.651 88.3008 760.049 88.3008C758.545 88.3008 757.407 88.9453 756.633 90.2344H755.602Z" fill="black"/>
</svg>
